<?xml version="1.0" encoding="UTF-8"?>
<svg id="Layer_2" data-name="Layer 2" xmlns="http://www.w3.org/2000/svg" viewBox="0 0 2444.76 352">
  <defs>
    <style>
      .cls-1 {
        fill: #f7f9fd;
      }
    </style>
  </defs>
  <g id="Layer_2-2" data-name="Layer 2">
    <g>
      <path class="cls-1" d="M139.2,268.8h-71.6V63.2H0V2h211.2v61.2h-72v205.6Z"/>
      <path class="cls-1" d="M286,119.6h1.2c10.4-30.8,22.8-39.6,56-39.6,40,0,61.2,19.2,61.2,55.2v133.6h-60.8v-110.8c0-12.8-.4-16.8-3.2-21.2-3.6-6.4-10.4-9.2-21.2-9.2-23.2,0-33.2,10.4-33.2,34.4v106.8h-60.8V2h60.8v117.6Z"/>
      <path class="cls-1" d="M605.19,206.4v3.6c0,16-3.6,29.6-10.8,39.2-11.2,15.6-31.2,21.6-70.4,21.6-43.6,0-65.6-5.6-80.4-19.6-13.6-13.6-18-33.6-18-80.4,0-40.4,5.2-60,19.6-72.8,14-12.8,34.8-18,71.6-18,68.4,0,88.4,20,88.4,88.4v17.6h-119.6c-.4,3.2-.4,6.4-.4,7.6,0,26.8,7.2,34.8,32,34.8,22,0,28.4-4.8,28.4-22h59.6ZM546.79,152.4c-.4-2.8-.4-5.2-.4-6,0-9.6-.8-12-3.2-15.6-4.4-6-10.4-7.6-28.4-7.6-16.8,0-22.8,2.4-26.4,10.4-1.6,4-2,4.8-2.4,18.8h60.8Z"/>
      <path class="cls-1" d="M945.19,168v8c-.4,46-4.8,60-23.6,75.6-9.6,8-24,14.4-37.2,16.8-8,1.6-25.6,2.4-50,2.4-48.8,0-60.4-1.2-76.8-8.8-22.8-10.8-37.6-29.6-42.8-55.6-2.8-13.2-4.4-50.4-4.4-94.8s6.4-68,24.8-86c21.6-20.8,42-25.6,105.2-25.6,39.6,0,52.4,1.6,68,8.8,19.6,9.2,30,24.8,33.6,49.6,1.2,9.2,1.6,16.4,2,39.2h-70.8c-.8-16.8-1.2-19.6-4-24.8-4.8-8.4-15.2-11.2-41.2-11.2s-36,4.8-40.4,18.4c-3.2,9.2-4,23.2-4,78.8,0,42,8,50.8,46.8,50.8,35.2,0,44.4-6.8,44.4-34,0-.8,0-4.4-.4-7.6h70.8Z"/>
      <path class="cls-1" d="M1138.78,206.4v3.6c0,16-3.6,29.6-10.8,39.2-11.2,15.6-31.2,21.6-70.4,21.6-43.6,0-65.6-5.6-80.4-19.6-13.6-13.6-18-33.6-18-80.4,0-40.4,5.2-60,19.6-72.8,14-12.8,34.8-18,71.6-18,68.4,0,88.4,20,88.4,88.4v17.6h-119.6c-.4,3.2-.4,6.4-.4,7.6,0,26.8,7.2,34.8,32,34.8,22,0,28.4-4.8,28.4-22h59.6ZM1080.38,152.4c-.4-2.8-.4-5.2-.4-6,0-9.6-.8-12-3.2-15.6-4.4-6-10.4-7.6-28.4-7.6-16.8,0-22.8,2.4-26.4,10.4-1.6,4-2,4.8-2.4,18.8h60.8Z"/>
      <path class="cls-1" d="M1220.38,268.8h-60.8V2h60.8v266.8Z"/>
      <path class="cls-1" d="M1311.58,268.8h-60.8V2h60.8v266.8Z"/>
      <path class="cls-1" d="M1577.57,85.2v-4.8c0-21.2-7.2-26-37.6-26-34.8,0-43.2,4.8-43.2,26,0,8.8,2,15.2,6,18.4,4.4,4,6.8,4.4,29.6,6,64.8,4.8,65.6,4.8,82.4,10,29.2,9.2,38.8,26.8,38.8,69.6,0,36-5.2,54.4-18.8,66.4-17.6,15.2-39.2,20-92,20-68,0-93.6-6.8-107.2-28.4-8.4-13.2-10.8-27.6-10.8-60h68v5.2c0,11.2,2.4,18,8,22,6,4.8,9.2,5.2,42,5.2,23.2,0,26.8-.4,32.8-5.6,5.2-4.4,7.6-10.4,7.6-21.2,0-18.8-5.6-23.2-33.6-24.8-43.6-2.4-65.6-4.8-79.2-8-33.2-8.4-45.2-28-45.2-75.6,0-32.4,6.8-52.4,22-63.2,17.6-12.4,40-16.4,92-16.4,56,0,78.8,5.6,92.4,22.8,10,12,14.4,28,14.4,50.4l-.4,12h-68Z"/>
      <path class="cls-1" d="M1735.17,47.2h-60.8V2h60.8v45.2ZM1735.17,268.8h-60.8V82h60.8v186.8Z"/>
      <path class="cls-1" d="M1941.57,264.8c0,67.6-21.6,87.2-95.6,87.2-40.4,0-62-6-73.6-20-7.6-9.2-9.2-17.2-10-46.4h58c0,18.4,4.4,22,26.4,22,26.4,0,34-6,34-26.4v-45.6h-1.2c-8.4,22.8-24.4,32.8-52.4,32.8-25.6,0-48.8-9.6-59.2-24-8.8-12.8-12-33.2-12-74.4s5.6-62.4,20.4-76c10.4-9.2,27.2-14,48.8-14,33.6,0,47.6,9.2,57.2,37.6h1.2l-2.8-35.6h60.8v182.8ZM1879.97,180c0-34-.4-36.8-6.8-45.2-4-5.6-11.2-8-25.2-8-27.6,0-30.8,5.2-30.8,48.4,0,39.6,4.4,46.4,30.4,46.4s32.4-7.2,32.4-35.6v-6Z"/>
      <path class="cls-1" d="M2032.77,82l-2.4,36.4h1.2c9.6-28.8,23.2-38.4,54.4-38.4,44.4,0,64.4,17.6,64.4,56.8v132h-60.8v-106.8c0-28-4.4-34.4-23.6-34.4-22,0-33.2,10.8-33.2,31.6v109.6h-60.8V82h60.8Z"/>
      <path class="cls-1" d="M2180.37,137.6c.4-22.4,2.4-30.4,9.2-39.2,11.6-13.6,29.6-18.4,73.2-18.4,52.4,0,75.2,8,85.6,30,3.6,6.8,6.4,24.8,6.4,37.6v121.2h-60.8l2-30.4h-1.6c-8.4,24.8-21.2,32.4-56.4,32.4-48,0-65.2-15.6-65.2-59.2,0-40.4,19.6-56.8,66.8-56.8,35.6,0,46,4.4,53.2,23.2h1.2v-36.4c0-18-7.6-24.4-28.4-24.4-18,0-22.8,4-24,20.4h-61.2ZM2233.97,210.8c0,16.8,6,20.4,32.8,20.4,21.2,0,26.8-4.8,26.8-21.6,0-14-6.8-18-31.2-18-21.2,0-28.4,4.8-28.4,19.2Z"/>
      <path class="cls-1" d="M2444.76,268.8h-60.8V2h60.8v266.8Z"/>
    </g>
  </g>
</svg>